<svg xmlns="http://www.w3.org/2000/svg" width="235" height="46.787" viewBox="0 0 235 46.787">
  <g id="UpdatedLogoNewSlogan" transform="translate(-332.5 -225.6)">
    <g id="Group_4" data-name="Group 4" transform="translate(332.5 225.6)">
      <path id="Path_1" data-name="Path 1" d="M637.98,225.911a1,1,0,0,1,.125-.311c.2.628.41,1.245.6,1.878.659.016,1.318-.01,1.972.016-.5.41-1.043.763-1.551,1.162l-.016.031c.171.628.415,1.24.581,1.873-.54-.358-1.048-.768-1.583-1.142h-.036c-.535.368-1.043.778-1.583,1.136.166-.633.41-1.245.581-1.873l-.016-.031c-.514-.394-1.053-.752-1.557-1.162.659-.021,1.318.005,1.972-.016C637.638,226.949,637.819,226.43,637.98,225.911Z" transform="translate(-619.778 -225.6)" fill="#002147"/>
      <path id="Path_2" data-name="Path 2" d="M497.554,249.567a8.262,8.262,0,0,1,.965-.467c.067.223.135.441.213.659.659.005,1.318-.01,1.977.005-.524.4-1.074.778-1.6,1.188.2.628.415,1.251.6,1.889-.55-.363-1.064-.778-1.609-1.157-.54.379-1.059.794-1.609,1.157.182-.633.4-1.256.6-1.883a9.109,9.109,0,0,0-.9-.643,8.54,8.54,0,0,1,1-.555c.093,0,.187.005.275.005C497.5,249.7,497.528,249.634,497.554,249.567Z" transform="translate(-487.706 -247.881)" fill="#002147"/>
      <path id="Path_3" data-name="Path 3" d="M1243.3,290.987q1.385-.023,2.771,0c-.016,5.583,0,11.166-.005,16.749.005,3.144-.01,6.289.005,9.433q-1.385.023-2.771,0c.016-5.651,0-11.306.005-16.957C1243.305,297.135,1243.316,294.064,1243.3,290.987Z" transform="translate(-1196.041 -287.583)" fill="#002147"/>
      <g id="Group_1" data-name="Group 1" transform="translate(94.607 3.392)">
        <path id="Path_4" data-name="Path 4" d="M2171.637,290.987q1.385-.023,2.771,0c-.015,3.212-.005,6.429-.005,9.641V311.68c.005,1.832-.01,3.658.005,5.49q-1.385.023-2.771,0c.015-.913,0-1.826,0-2.74,0-.3.016-.6-.015-.9-.192.2-.327.446-.5.659a9.223,9.223,0,0,1-2.651,2.382,7.593,7.593,0,0,1-2.252.851,8.626,8.626,0,0,1-8.749-3.637,10,10,0,0,1-1.671-5.059,12.472,12.472,0,0,1,.177-2.978,9.588,9.588,0,0,1,1.873-4.213,8.736,8.736,0,0,1,4.385-2.978,8.5,8.5,0,0,1,4.96.057,8.312,8.312,0,0,1,3.612,2.449c.3.316.54.685.82,1.017.031-.732.005-1.463.015-2.19C2171.642,296.928,2171.653,293.96,2171.637,290.987Zm-7.057,9.755a6.324,6.324,0,0,0-2.9.939,6.158,6.158,0,0,0-1.92,1.92,8.408,8.408,0,0,0-1.069,5.376,7.121,7.121,0,0,0,2.247,4.519,6.235,6.235,0,0,0,5.079,1.51,6.609,6.609,0,0,0,3.487-1.707,7.123,7.123,0,0,0,1.961-3.284,7.946,7.946,0,0,0-.218-4.9,6.954,6.954,0,0,0-2.226-3.02A6.487,6.487,0,0,0,2164.58,300.742Z" transform="translate(-2155.785 -290.975)" fill="#002147"/>
      </g>
      <path id="Path_5" data-name="Path 5" d="M2609.557,301.558q1.573-.016,3.145,0c.01,1.012.01,2.029,0,3.041q-1.573.016-3.145,0C2609.547,303.587,2609.547,302.57,2609.557,301.558Z" transform="translate(-2491.398 -297.609)" fill="#002147"/>
      <path id="Path_6" data-name="Path 6" d="M484.877,368.484c.218-.623.389-1.266.623-1.884.228.617.4,1.261.623,1.884.659.005,1.323-.01,1.982.01-.524.4-1.074.778-1.6,1.183.2.628.41,1.251.6,1.884-.555-.353-1.064-.773-1.6-1.152-.545.374-1.053.794-1.609,1.152.187-.633.4-1.256.6-1.884-.524-.4-1.074-.778-1.6-1.188C483.554,368.478,484.218,368.494,484.877,368.484Z" transform="translate(-475.096 -359.284)" fill="#002147"/>
      <path id="Path_7" data-name="Path 7" d="M638.179,366.8a.859.859,0,0,1,.1.223c.171.55.363,1.095.524,1.65.659.021,1.318-.005,1.982.01-.5.42-1.074.768-1.577,1.188.176.633.415,1.245.586,1.878-.545-.358-1.048-.768-1.583-1.136h-.036c-.534.368-1.038.778-1.583,1.136.166-.633.41-1.245.586-1.878-.5-.42-1.074-.768-1.577-1.193.659-.016,1.323.005,1.982-.01C637.769,368.04,637.976,367.423,638.179,366.8Z" transform="translate(-619.873 -359.473)" fill="#002147"/>
      <path id="Path_8" data-name="Path 8" d="M350.163,384.952a16.808,16.808,0,0,1,1.5-2.952c.109.363.233.721.342,1.079.659.016,1.318-.005,1.982.01-.425.348-.882.654-1.318.981-.083.073-.2.119-.254.218.171.628.415,1.235.581,1.868-.451-.3-.872-.628-1.308-.944-.1-.062-.187-.171-.306-.192-.54.358-1.043.778-1.583,1.136C349.888,385.751,350.059,385.362,350.163,384.952Z" transform="translate(-348.902 -373.885)" fill="#002147"/>
      <g id="Group_2" data-name="Group 2" transform="translate(53.982 10.641)">
        <path id="Path_9" data-name="Path 9" d="M1378.987,431.121a8.949,8.949,0,0,1,4.1-.337,7.844,7.844,0,0,1,2.812.944,8.328,8.328,0,0,1,3.477,3.99,12.289,12.289,0,0,1,.908,5.661c-2.745.021-5.49.005-8.24.01h-6.372a8.062,8.062,0,0,0,.82,2.854,6.207,6.207,0,0,0,4.514,3.305,7.559,7.559,0,0,0,3.736-.342,8.2,8.2,0,0,0,3.181-2.179,2.038,2.038,0,0,1,.384.316c.452.41.913.809,1.354,1.235a8.551,8.551,0,0,1-.726.773,9.138,9.138,0,0,1-6.221,2.7,9.639,9.639,0,0,1-3.082-.3,8.835,8.835,0,0,1-4.655-3.02,9.318,9.318,0,0,1-1.609-3,11.232,11.232,0,0,1-.005-6.678,9.358,9.358,0,0,1,3.274-4.717A8.432,8.432,0,0,1,1378.987,431.121Zm-.426,2.885a6.173,6.173,0,0,0-1.8,1.941,8.266,8.266,0,0,0-1.09,3.357c1.069.021,2.143,0,3.212.01h8.619a8.67,8.67,0,0,0-.815-3.077,5.772,5.772,0,0,0-2.112-2.4,5.511,5.511,0,0,0-2.688-.789A5.444,5.444,0,0,0,1378.561,434.006Z" transform="translate(-1372.862 -430.684)" fill="#002147"/>
      </g>
      <path id="Path_10" data-name="Path 10" d="M1783.283,431.272a7.432,7.432,0,0,1,2.88-.617,7.974,7.974,0,0,1,3.388.617,6.078,6.078,0,0,1,2.252,1.692,7.029,7.029,0,0,1,1.406,2.947,14.4,14.4,0,0,1,.244,3.373c.005,3.44-.01,6.875.005,10.315-.929.021-1.858.005-2.786.01v-11a6.555,6.555,0,0,0-.825-3.217,4.3,4.3,0,0,0-1.805-1.676,5.87,5.87,0,0,0-3.435-.446,5.265,5.265,0,0,0-2.74,1.308,5.774,5.774,0,0,0-1.779,4.084v10.948c-.929-.005-1.858.01-2.786-.01.015-6.18,0-12.36.01-18.54.924-.01,1.842.005,2.766-.01.026,1.043-.005,2.081.016,3.124.218-.275.389-.586.617-.856A6.954,6.954,0,0,1,1783.283,431.272Z" transform="translate(-1702.332 -420.013)" fill="#002147"/>
      <path id="Path_11" data-name="Path 11" d="M2771.423,430.807a8.82,8.82,0,0,1,3.757-.01,6.594,6.594,0,0,1,2.615,1.209,6.321,6.321,0,0,1,1.972,2.693,9.056,9.056,0,0,1,.586,2.921c.005,3.975-.01,7.949.005,11.924-.929.021-1.857.005-2.786.01V438.762a6.9,6.9,0,0,0-.581-2.994,4.427,4.427,0,0,0-1.744-1.946,5.656,5.656,0,0,0-3.377-.654,5.336,5.336,0,0,0-2.9,1.193,5.554,5.554,0,0,0-1.884,3.419,13.38,13.38,0,0,0-.1,2.278v9.5c-.929-.005-1.858.01-2.786-.01.016-6.18,0-12.36.01-18.54.923-.01,1.842.005,2.765-.01.026,1.053-.01,2.107.016,3.16a8.4,8.4,0,0,1,1.665-1.966A6.723,6.723,0,0,1,2771.423,430.807Z" transform="translate(-2638.024 -419.963)" fill="#002147"/>
      <g id="Group_3" data-name="Group 3" transform="translate(145.838 10.638)">
        <path id="Path_12" data-name="Path 12" d="M3148.937,431.1a8.673,8.673,0,0,1,3.747-.436,8.259,8.259,0,0,1,3.4,1.033,9.689,9.689,0,0,1,2.911,2.62c-.016-.846-.005-1.692-.005-2.537a4.659,4.659,0,0,1,.021-.763q1.369.016,2.744,0c.021,4.286.005,8.567.01,12.853-.016,1.23.042,2.459-.057,3.689a9.651,9.651,0,0,1-1.012,3.606,7.3,7.3,0,0,1-1.7,2.133,7.933,7.933,0,0,1-2.273,1.349,11.524,11.524,0,0,1-3.419.716,14.833,14.833,0,0,1-7.306-1.385,12.282,12.282,0,0,1-2-1.183c.394-.737.835-1.443,1.24-2.169.4.239.773.534,1.188.758a11.489,11.489,0,0,0,5.516,1.6,3.608,3.608,0,0,0,.82,0,7.188,7.188,0,0,0,3.586-1,5.274,5.274,0,0,0,1.774-1.806,7.113,7.113,0,0,0,.9-3.248c0-.872.005-1.743-.005-2.615a15.364,15.364,0,0,1-1.054,1.193,8.4,8.4,0,0,1-8.836,2.226,8.481,8.481,0,0,1-4.7-3.6,9.212,9.212,0,0,1-1.157-6.372,8.6,8.6,0,0,1,1.215-3.186A8.5,8.5,0,0,1,3148.937,431.1Zm3.186,1.993a6.749,6.749,0,0,0-3.04.8,5.975,5.975,0,0,0-2.009,1.785,6.169,6.169,0,0,0-1.048,2.859,6.62,6.62,0,0,0,.643,3.772,6.178,6.178,0,0,0,3.964,3.16,7.132,7.132,0,0,0,6.185-1.339,6.1,6.1,0,0,0,1.842-2.47,6.29,6.29,0,0,0,.3-3.539,6.023,6.023,0,0,0-1.416-2.792A7.044,7.044,0,0,0,3152.123,433.09Z" transform="translate(-3143.137 -430.616)" fill="#002147"/>
      </g>
      <path id="Path_13" data-name="Path 13" d="M2613,438.3c.923.016,1.842,0,2.766.01q.007,8.523,0,17.045c.005.5-.011,1,.005,1.494-.929.021-1.857.005-2.786.01V439.27C2612.99,438.949,2612.975,438.622,2613,438.3Z" transform="translate(-2494.655 -427.263)" fill="#002147"/>
      <path id="Path_14" data-name="Path 14" d="M334.98,507.6c.234.617.415,1.256.617,1.883.659.021,1.318-.005,1.977.01-.5.425-1.074.768-1.577,1.193.171.633.415,1.245.581,1.878-.545-.353-1.048-.768-1.583-1.136a1.857,1.857,0,0,0-.415.275c-.4.285-.784.6-1.2.861.171-.633.4-1.251.592-1.884-.483-.374-.991-.716-1.474-1.095a.708.708,0,0,0,.01-.1c.617.016,1.235.016,1.858,0C334.57,508.85,334.773,508.223,334.98,507.6Z" transform="translate(-332.5 -492.968)" fill="#002147"/>
      <path id="Path_15" data-name="Path 15" d="M484.782,509.489c.218-.628.389-1.266.623-1.889.223.623.4,1.261.623,1.883.659.01,1.323-.005,1.982.01-.524.4-1.069.784-1.6,1.183.2.638.42,1.271.607,1.909-.534-.394-1.074-.789-1.609-1.178-.54.379-1.053.8-1.609,1.152.187-.633.4-1.256.6-1.884-.524-.4-1.074-.778-1.6-1.188C483.459,509.483,484.123,509.494,484.782,509.489Z" transform="translate(-475.001 -492.968)" fill="#002147"/>
      <path id="Path_16" data-name="Path 16" d="M638.27,508.091a1.01,1.01,0,0,1,.119-.291c.2.623.41,1.245.6,1.873.659.026,1.318-.005,1.977.016-.5.426-1.069.773-1.572,1.188.171.633.415,1.245.586,1.878-.545-.353-1.048-.768-1.583-1.136h-.031c-.535.363-1.038.784-1.583,1.136.166-.633.415-1.245.586-1.878-.508-.415-1.074-.763-1.572-1.188.659-.021,1.318.01,1.977-.016C637.927,509.139,638.1,508.62,638.27,508.091Z" transform="translate(-620.062 -493.157)" fill="#002147"/>
    </g>
    <g id="Group_6" data-name="Group 6" transform="translate(333.507 226.975)">
      <path id="Path_17" data-name="Path 17" d="M790.133,252.1a17.617,17.617,0,0,1,2.148,1.183c-.218.187-.462.332-.674.519.2.628.415,1.25.6,1.884-.55-.363-1.064-.778-1.6-1.152-.539.374-1.053.794-1.6,1.152.182-.633.4-1.25.6-1.884-.519-.41-1.069-.778-1.593-1.188.659-.021,1.318-.005,1.977-.005C790.034,252.442,790.086,252.271,790.133,252.1Z" transform="translate(-765.372 -252.1)" fill="#d82027"/>
      <path id="Path_18" data-name="Path 18" d="M790.422,367.182c.026-.062.026-.14.078-.182a.817.817,0,0,1,.1.259c.171.534.343,1.069.519,1.6.659.01,1.318-.01,1.977.01-.519.41-1.074.778-1.593,1.188.192.628.41,1.251.6,1.878-.555-.353-1.064-.778-1.609-1.147-.54.389-1.079.783-1.608,1.178.182-.643.41-1.271.607-1.91-.524-.4-1.074-.778-1.593-1.183.659-.016,1.318-.005,1.977-.005C790.069,368.308,790.245,367.747,790.422,367.182Z" transform="translate(-765.277 -361.038)" fill="#d82027"/>
      <path id="Path_19" data-name="Path 19" d="M3978.832,384.148a12.071,12.071,0,0,1,3.767.067,11.609,11.609,0,0,1,5.557,2.511c-.748,1.126-1.531,2.231-2.288,3.352-.047.067-.115.2-.2.1a13.446,13.446,0,0,0-2.5-1.4,7.011,7.011,0,0,0-3.44-.592,2.81,2.81,0,0,0-1.583.649,1.581,1.581,0,0,0-.5,1.214,1.6,1.6,0,0,0,.41,1.147,4.154,4.154,0,0,0,1.51.835c.96.342,1.957.581,2.937.851a16.092,16.092,0,0,1,3.145,1.162,6.139,6.139,0,0,1,2.174,1.764,5.211,5.211,0,0,1,.954,2.911,8.841,8.841,0,0,1-.077,1.619,5.882,5.882,0,0,1-1.1,2.683,6.277,6.277,0,0,1-2.662,2,9.489,9.489,0,0,1-3.191.675,13.287,13.287,0,0,1-9.537-3.352,2.016,2.016,0,0,1,.259-.337c.815-.991,1.64-1.967,2.449-2.963.333.218.628.493.961.716a9.747,9.747,0,0,0,3.331,1.6,7.424,7.424,0,0,0,3.133.13,2.734,2.734,0,0,0,1.427-.742,1.686,1.686,0,0,0,.416-1.193,1.477,1.477,0,0,0-.436-1.126,4.15,4.15,0,0,0-1.277-.747,37.906,37.906,0,0,0-3.684-1.09,13.361,13.361,0,0,1-3.279-1.334,4.982,4.982,0,0,1-1.827-1.858,6.885,6.885,0,0,1,.3-6.325,6,6,0,0,1,1.888-1.847A7.572,7.572,0,0,1,3978.832,384.148Z" transform="translate(-3784.35 -377.184)" fill="#d82027"/>
      <g id="Group_5" data-name="Group 5" transform="translate(205.108 6.997)">
        <path id="Path_20" data-name="Path 20" d="M4313.756,386.956c1.427-.026,2.853-.005,4.28-.01q2.577,6.071,5.137,12.142,1.915,4.538,3.829,9.075c-1.619.005-3.232.01-4.851-.005-.617-1.577-1.277-3.134-1.9-4.711-2.936-.005-5.877,0-8.815-.005-.649,1.572-1.271,3.155-1.919,4.722-1.572.005-3.145,0-4.723,0q4.375-10.383,8.774-20.76A3.389,3.389,0,0,0,4313.756,386.956Zm2.075,5.64c-.9,2.242-1.826,4.468-2.718,6.714.467.021.934.005,1.4.01,1.355-.005,2.713.01,4.068-.005-.4-1.053-.846-2.086-1.26-3.134s-.852-2.091-1.277-3.134A2.217,2.217,0,0,0,4315.831,392.6Z" transform="translate(-4304.799 -386.942)" fill="#d82027"/>
      </g>
      <path id="Path_21" data-name="Path 21" d="M942.774,390a17.833,17.833,0,0,1,1.577,3.43c-.379-.254-.737-.545-1.116-.8-.052-.047-.109.016-.15.042-.5.358-.976.737-1.489,1.074.156-.592.369-1.162.55-1.743.01-.062.052-.145-.021-.182-.5-.389-1.033-.737-1.526-1.136.659-.021,1.318.005,1.977-.016A5.745,5.745,0,0,0,942.774,390Z" transform="translate(-910.053 -382.845)" fill="#d82027"/>
      <path id="Path_22" data-name="Path 22" d="M3578.4,389.915c1.24-.021,2.48-.005,3.715-.01.306.005.612-.01.914.01-.016,3.679,0,7.363-.005,11.042a9.336,9.336,0,0,0,.358,3.238,4.029,4.029,0,0,0,1.547,2.1,5.072,5.072,0,0,0,3.539.638,3.928,3.928,0,0,0,2.625-1.526,5.308,5.308,0,0,0,.913-2.8c.046-.467.021-.934.026-1.4V389.9h4.618v12.453a12.007,12.007,0,0,1-.778,4,8.014,8.014,0,0,1-1.209,2.055,7.269,7.269,0,0,1-2.475,1.935,10.041,10.041,0,0,1-3.357.9,13.3,13.3,0,0,1-3.9-.182,8.53,8.53,0,0,1-2.9-1.142,7.06,7.06,0,0,1-1.717-1.546,8.233,8.233,0,0,1-1.489-3.015,12.978,12.978,0,0,1-.416-3.518C3578.4,397.865,3578.41,393.89,3578.4,389.915Z" transform="translate(-3410.983 -382.75)" fill="#d82027"/>
      <path id="Path_23" data-name="Path 23" d="M790.568,508.5h.052c.2.617.394,1.23.6,1.847.659.005,1.318-.01,1.977.005-.519.41-1.069.778-1.593,1.183.192.638.42,1.266.6,1.91-.535-.394-1.069-.789-1.609-1.178-.54.389-1.074.784-1.609,1.178.187-.638.4-1.271.612-1.9-.524-.4-1.079-.778-1.6-1.188.659-.021,1.318,0,1.982-.01C790.179,509.73,790.376,509.112,790.568,508.5Z" transform="translate(-765.372 -495.196)" fill="#d82027"/>
      <path id="Path_24" data-name="Path 24" d="M942.772,509.578c.208-.628.384-1.261.617-1.878.208.623.41,1.251.607,1.878.488.021.976.005,1.463.005a1.178,1.178,0,0,1,.021.4c-.363.259-.742.509-1.079.8.171.628.415,1.24.581,1.868-.514-.332-1-.721-1.494-1.074-.041-.026-.1-.083-.145-.036-.524.363-1.017.768-1.551,1.116.166-.617.394-1.214.571-1.826.031-.073-.057-.109-.1-.151-.488-.363-1-.7-1.463-1.09C941.449,509.573,942.108,509.6,942.772,509.578Z" transform="translate(-910.243 -494.437)" fill="#d82027"/>
      <path id="Path_25" data-name="Path 25" d="M353.151,649.485a5.368,5.368,0,0,1,.244-.685c.2.623.4,1.25.6,1.873.659.031,1.318,0,1.977.015-.5.425-1.069.768-1.572,1.193.166.633.41,1.24.576,1.873-.519-.327-1-.716-1.494-1.074-.042-.021-.093-.083-.14-.041-.156.1-.3.218-.451.327a18.352,18.352,0,0,1-.991-2.273c.291-.01.581.005.872-.016C352.886,650.274,353.021,649.879,353.151,649.485Z" transform="translate(-351.9 -628.216)" fill="#d82027"/>
      <path id="Path_26" data-name="Path 26" d="M485.474,649.4h.052c.176.617.4,1.219.571,1.837.664.042,1.334,0,2,.021-.519.415-1.074.783-1.6,1.188.208.633.42,1.266.607,1.9-.54-.384-1.069-.789-1.608-1.173-.545.384-1.074.783-1.609,1.173.176-.643.415-1.271.6-1.909-.524-.4-1.074-.768-1.588-1.183.659-.01,1.318,0,1.977-.005C485.079,650.635,485.276,650.017,485.474,649.4Z" transform="translate(-476.103 -628.785)" fill="#d82027"/>
      <path id="Path_27" data-name="Path 27" d="M638.179,648.8a2.589,2.589,0,0,1,.176.488c.151.462.3.924.441,1.385.659.031,1.318,0,1.977.015-.5.431-1.069.768-1.572,1.193.171.628.42,1.235.581,1.868-.545-.348-1.043-.768-1.577-1.131h-.031c-.534.363-1.038.783-1.583,1.131.161-.633.4-1.24.581-1.868-.5-.425-1.079-.763-1.572-1.193.659-.015,1.318.016,1.977-.015C637.769,650.045,637.976,649.423,638.179,648.8Z" transform="translate(-620.879 -628.216)" fill="#d82027"/>
      <path id="Path_28" data-name="Path 28" d="M790.379,649.5h.052c.2.617.389,1.235.6,1.847.659.005,1.318-.005,1.977.005-.514.415-1.064.783-1.593,1.183.187.638.42,1.266.6,1.91-.54-.384-1.059-.8-1.609-1.162-.55.368-1.069.784-1.609,1.162.192-.638.4-1.271.607-1.9-.529-.4-1.079-.778-1.6-1.188.664-.021,1.333.021,2-.021C789.974,650.714,790.2,650.112,790.379,649.5Z" transform="translate(-765.182 -628.88)" fill="#d82027"/>
      <path id="Path_29" data-name="Path 29" d="M943.184,648.8c.239.612.415,1.245.617,1.873.156.01.306.015.462.021a18.47,18.47,0,0,1-.877,2.06c-.068-.042-.13-.119-.213-.125-.534.363-1.033.778-1.578,1.126.161-.633.415-1.24.576-1.873-.5-.425-1.069-.763-1.572-1.193.659-.015,1.318.016,1.977-.015C942.779,650.045,942.977,649.423,943.184,648.8Z" transform="translate(-910.054 -628.216)" fill="#d82027"/>
      <path id="Path_30" data-name="Path 30" d="M484.972,791.494c.218-.628.4-1.271.623-1.894.182.534.353,1.074.524,1.608a.78.78,0,0,0,.114.28c.654.026,1.308,0,1.967.01-.519.415-1.069.783-1.6,1.188.2.633.415,1.266.607,1.9-.545-.379-1.069-.783-1.609-1.167a10.084,10.084,0,0,0-.851.633c-.166-.1-.337-.187-.5-.28.1-.368.244-.726.342-1.095-.524-.4-1.074-.768-1.588-1.183C483.654,791.494,484.313,791.515,484.972,791.494Z" transform="translate(-476.197 -761.71)" fill="#d82027"/>
      <path id="Path_31" data-name="Path 31" d="M637.515,789.9a1.944,1.944,0,0,1,.151.41c.156.488.317.975.467,1.463.669.036,1.339.005,2.008.015-.534.4-1.079.784-1.614,1.188.192.628.42,1.24.586,1.873-.519-.327-1-.716-1.494-1.074-.042-.026-.093-.088-.14-.041-.524.363-1.017.778-1.557,1.116.171-.633.4-1.245.591-1.873-.534-.4-1.079-.789-1.614-1.188.669-.015,1.339.021,2.008-.015C637.105,791.145,637.313,790.523,637.515,789.9Z" transform="translate(-620.216 -761.994)" fill="#d82027"/>
      <path id="Path_32" data-name="Path 32" d="M790.489,789.9a.746.746,0,0,1,.088.182c.176.571.358,1.136.55,1.7.659.016,1.318,0,1.977.005-.514.415-1.064.784-1.588,1.183.083.3.187.591.28.887-.2.125-.4.239-.607.353-.223-.171-.451-.342-.685-.5-.545.384-1.069.789-1.614,1.167.192-.638.41-1.271.607-1.9-.529-.4-1.079-.773-1.6-1.188.638-.005,1.282.01,1.92-.005.088.01.088-.1.119-.161C790.11,791.047,790.313,790.476,790.489,789.9Z" transform="translate(-765.277 -761.994)" fill="#d82027"/>
    </g>
    <g id="Group_7" data-name="Group 7" transform="translate(559.494 234.54)">
      <path id="Path_33" data-name="Path 33" d="M4708.154,398.342h-.954V398h2.324v.342h-.96v2.792h-.411Z" transform="translate(-4707.2 -397.995)" fill="#adadad"/>
      <path id="Path_34" data-name="Path 34" d="M4759.729,399.664c-.021-.436-.051-.965-.047-1.354h-.016c-.108.368-.238.758-.395,1.193l-.555,1.52h-.305l-.509-1.494c-.151-.441-.274-.846-.363-1.219h-.011c-.009.389-.031.918-.062,1.385l-.082,1.344H4757l.218-3.139h.519l.535,1.515c.129.384.239.732.316,1.059h.016c.077-.317.192-.659.332-1.059l.562-1.515h.519l.2,3.139h-.395Z" transform="translate(-4754.416 -397.9)" fill="#adadad"/>
    </g>
    <g id="Group_8" data-name="Group 8" transform="translate(564.086 267.173)">
      <path id="Path_35" data-name="Path 35" d="M4796.26,1027h-.56v-.2h1.371v.2h-.567v1.645h-.244Z" transform="translate(-4795.7 -1026.8)" fill="#adadad"/>
      <path id="Path_36" data-name="Path 36" d="M4826.613,1027.933c-.015-.26-.031-.566-.025-.8h-.011c-.062.218-.141.446-.233.7l-.327.9h-.181l-.3-.882c-.088-.259-.16-.5-.212-.716h-.005c-.005.228-.021.54-.036.82l-.052.794H4825l.13-1.847h.306l.317.892c.077.228.14.431.187.623h.011c.046-.187.113-.389.2-.623l.327-.892h.307l.114,1.847h-.234Z" transform="translate(-4823.48 -1026.895)" fill="#adadad"/>
    </g>
    <g id="Group_9" data-name="Group 9" transform="translate(333.175 266.965)">
      <path id="Path_37" data-name="Path 37" d="M349.407,1025.435h-2.984v1.432h2.646v.841h-2.646v2.133H345.5V1024.6h3.9v.835Z" transform="translate(-345.5 -1024.507)" fill="#002147"/>
      <path id="Path_38" data-name="Path 38" d="M479.024,1024.6v5.241H478.1V1024.6Z" transform="translate(-471.22 -1024.507)" fill="#002147"/>
      <path id="Path_39" data-name="Path 39" d="M563.363,1024.6h.908v5.241H563.5l-2.89-3.731v3.731H559.7V1024.6h.856l2.807,3.627Z" transform="translate(-548.585 -1024.507)" fill="#002147"/>
      <path id="Path_40" data-name="Path 40" d="M707.369,1029.082h-.976l-.529-1.266h-2.48l-.54,1.266H701.9l2.309-5.282h.856Zm-2.75-4.177-.9,2.1h1.806Z" transform="translate(-683.407 -1023.748)" fill="#002147"/>
      <path id="Path_41" data-name="Path 41" d="M865.063,1024.6h.908v5.241H865.2l-2.89-3.731v3.731H861.4V1024.6h.856l2.807,3.627Z" transform="translate(-834.631 -1024.507)" fill="#002147"/>
      <path id="Path_42" data-name="Path 42" d="M1010.467,1028.222a2.711,2.711,0,0,1,.036-5.422,2.75,2.75,0,0,1,2.055.815l-.591.68a2.087,2.087,0,0,0-1.469-.654,1.871,1.871,0,0,0,0,3.731,2.064,2.064,0,0,0,1.5-.68l.591.6A2.694,2.694,0,0,1,1010.467,1028.222Z" transform="translate(-973.434 -1022.8)" fill="#002147"/>
      <path id="Path_43" data-name="Path 43" d="M1157.423,1024.6v5.241h-.923V1024.6Z" transform="translate(-1114.419 -1024.507)" fill="#002147"/>
      <path id="Path_44" data-name="Path 44" d="M1241.763,1024.6h.908v5.241h-.773l-2.89-3.731v3.731h-.908V1024.6h.856l2.807,3.627Z" transform="translate(-1191.785 -1024.507)" fill="#002147"/>
      <path id="Path_45" data-name="Path 45" d="M1387.219,1028.222a2.6,2.6,0,0,1-2.719-2.7,2.675,2.675,0,0,1,2.7-2.719,2.829,2.829,0,0,1,2.013.711l-.586.7a2.059,2.059,0,0,0-1.469-.56,1.774,1.774,0,0,0-1.7,1.858,1.753,1.753,0,0,0,1.785,1.878,2.117,2.117,0,0,0,1.266-.4V1026h-1.339v-.8h2.231v2.2A3.308,3.308,0,0,1,1387.219,1028.222Z" transform="translate(-1330.589 -1022.8)" fill="#002147"/>
      <path id="Path_46" data-name="Path 46" d="M1620.924,1024.6v5.241H1620V1024.6Z" transform="translate(-1553.869 -1024.507)" fill="#002147"/>
      <path id="Path_47" data-name="Path 47" d="M1704.179,1028.649h-.031l-1.64-2.454v3.746h-.908V1024.7h.981l1.593,2.48,1.593-2.48h.981v5.241h-.924v-3.762Z" transform="translate(-1631.235 -1024.601)" fill="#002147"/>
      <path id="Path_48" data-name="Path 48" d="M1865.667,1028.154h-1.043v1.686h-.924V1024.6h2.065a1.762,1.762,0,0,1,1.993,1.759C1867.763,1027.542,1866.819,1028.154,1865.667,1028.154Zm.026-2.719h-1.069v1.889h1.069c.7,0,1.131-.384,1.131-.944C1866.824,1025.757,1866.383,1025.435,1865.693,1025.435Z" transform="translate(-1784.924 -1024.507)" fill="#002147"/>
      <path id="Path_49" data-name="Path 49" d="M1995.235,1028.222a2.711,2.711,0,1,1,2.75-2.719A2.664,2.664,0,0,1,1995.235,1028.222Zm0-4.576a1.773,1.773,0,0,0-1.77,1.858,1.8,1.8,0,0,0,1.785,1.873,1.773,1.773,0,0,0,1.769-1.857A1.805,1.805,0,0,0,1995.235,1023.646Z" transform="translate(-1907.04 -1022.8)" fill="#002147"/>
      <path id="Path_50" data-name="Path 50" d="M2159.863,1029.841l-1.287-1.827h-1.152v1.827h-.924V1024.6h2.335c1.2,0,1.946.638,1.946,1.66a1.571,1.571,0,0,1-1.25,1.593l1.416,1.987Zm-1.1-4.405h-1.339v1.759h1.349c.659,0,1.079-.342,1.079-.882C2159.847,1025.736,2159.442,1025.435,2158.763,1025.435Z" transform="translate(-2062.531 -1024.507)" fill="#002147"/>
      <path id="Path_51" data-name="Path 51" d="M2292.689,1029.746h-.929v-4.39h-1.66v-.856h4.254v.856h-1.66v4.39Z" transform="translate(-2189.199 -1024.412)" fill="#002147"/>
      <path id="Path_52" data-name="Path 52" d="M2411.369,1029.082h-.976l-.529-1.266h-2.48l-.54,1.266h-.944l2.309-5.282h.856Zm-2.75-4.177-.9,2.1h1.806Z" transform="translate(-2298.99 -1023.748)" fill="#002147"/>
      <path id="Path_53" data-name="Path 53" d="M2569.063,1024.6h.908v5.241h-.774l-2.89-3.731v3.731h-.908V1024.6h.856l2.807,3.627Z" transform="translate(-2450.214 -1024.507)" fill="#002147"/>
      <path id="Path_54" data-name="Path 54" d="M2711.689,1029.746h-.929v-4.39H2709.1v-.856h4.255v.856h-1.66v4.39Z" transform="translate(-2586.458 -1024.412)" fill="#002147"/>
      <path id="Path_55" data-name="Path 55" d="M2929.278,1028.649h-.031l-1.64-2.454v3.746h-.908V1024.7h.981l1.593,2.48,1.593-2.48h.98v5.241h-.924v-3.762Z" transform="translate(-2792.766 -1024.601)" fill="#002147"/>
      <path id="Path_56" data-name="Path 56" d="M3087.035,1028.222a2.711,2.711,0,1,1,2.75-2.719A2.664,2.664,0,0,1,3087.035,1028.222Zm0-4.576a1.773,1.773,0,0,0-1.769,1.858,1.8,1.8,0,0,0,1.785,1.873,1.773,1.773,0,0,0,1.769-1.857A1.8,1.8,0,0,0,3087.035,1023.646Z" transform="translate(-2942.189 -1022.8)" fill="#002147"/>
      <path id="Path_57" data-name="Path 57" d="M3250.879,1028.649h-.031l-1.64-2.454v3.746h-.908V1024.7h.981l1.593,2.48,1.593-2.48h.981v5.241h-.924v-3.762Z" transform="translate(-3097.68 -1024.601)" fill="#002147"/>
      <path id="Path_58" data-name="Path 58" d="M3414.386,1025.42h-2.968v1.365h2.631v.825h-2.631v1.406h3v.825H3410.5V1024.6h3.886Z" transform="translate(-3251.464 -1024.507)" fill="#002147"/>
      <path id="Path_59" data-name="Path 59" d="M3547.658,1024.6h.908v5.241h-.773l-2.891-3.731v3.731h-.9V1024.6h.856l2.807,3.627V1024.6Z" transform="translate(-3378.036 -1024.507)" fill="#002147"/>
      <path id="Path_60" data-name="Path 60" d="M3690.189,1029.746h-.929v-4.39h-1.66v-.856h4.255v.856h-1.66v4.39Z" transform="translate(-3514.186 -1024.412)" fill="#002147"/>
      <path id="Path_61" data-name="Path 61" d="M3818.671,1025.378c1.111.27,1.687.664,1.687,1.541,0,.991-.773,1.572-1.873,1.572a3.21,3.21,0,0,1-2.185-.84l.555-.659a2.407,2.407,0,0,0,1.656.68c.571,0,.929-.265.929-.664,0-.384-.208-.586-1.183-.809-1.116-.27-1.743-.6-1.743-1.572a1.6,1.6,0,0,1,1.79-1.526,2.926,2.926,0,0,1,1.9.659l-.493.7a2.378,2.378,0,0,0-1.422-.54c-.54,0-.856.275-.856.628C3817.425,1024.958,3817.664,1025.139,3818.671,1025.378Z" transform="translate(-3636.207 -1023.084)" fill="#002147"/>
      <path id="Path_62" data-name="Path 62" d="M4034.223,1024.6v5.241h-.923V1024.6Z" transform="translate(-3841.948 -1024.507)" fill="#002147"/>
      <path id="Path_63" data-name="Path 63" d="M4118.463,1024.6h.908v5.241h-.773l-2.891-3.731v3.731h-.908V1024.6h.857l2.807,3.627Z" transform="translate(-3919.217 -1024.507)" fill="#002147"/>
      <path id="Path_64" data-name="Path 64" d="M4345.8,1024.6h.923v4.405h2.755v.841H4345.8Z" transform="translate(-4138.232 -1024.507)" fill="#002147"/>
      <path id="Path_65" data-name="Path 65" d="M4473.918,1024.6v5.241H4473V1024.6Z" transform="translate(-4258.833 -1024.507)" fill="#002147"/>
      <path id="Path_66" data-name="Path 66" d="M4558.306,1025.435h-2.983v1.432h2.646v.841h-2.646v2.133h-.924V1024.6h3.9v.835Z" transform="translate(-4336.008 -1024.507)" fill="#002147"/>
      <path id="Path_67" data-name="Path 67" d="M4689.892,1025.42h-2.968v1.365h2.631v.825h-2.631v1.406h3v.825H4686V1024.6h3.887v.82Z" transform="translate(-4460.779 -1024.507)" fill="#002147"/>
    </g>
  </g>
</svg>
